<svg xmlns="http://www.w3.org/2000/svg" viewBox="0 0 24 24" fill="none" stroke="currentColor" stroke-width="2" stroke-linecap="round" stroke-linejoin="round">
  <path d="M4 15v2a2 2 0 0 0 2 2h12a2 2 0 0 0 2-2v-2M4 8h16M2 15h4M20 10h.01" />
  <path d="M22 3H2v18h20V3z" />
</svg>
<svg xmlns="http://www.w3.org/2000/svg" viewBox="0 0 24 24" fill="none" stroke="currentColor" stroke-width="2" stroke-linecap="round" stroke-linejoin="round">
  <path d="M4 15c0 1.657 1.343 3 3 3h10c1.657 0 3-1.343 3-3V9c0-1.657-1.343-3-3-3H7c-1.657 0-3 1.343-3 3v6z"/>
  <path d="M4 15c0 1.657 1.343 3 3 3h10c1.657 0 3-1.343 3-3V9c0-1.657-1.343-3-3-3H7c-1.657 0-3 1.343-3 3v6z"/>
  <path d="M4 15c0 1.657 1.343 3 3 3h10c1.657 0 3-1.343 3-3V9c0-1.657-1.343-3-3-3H7c-1.657 0-3 1.343-3 3v6z"/>
  <path d="M4 15c0 1.657 1.343 3 3 3h10c1.657 0 3-1.343 3-3V9c0-1.657-1.343-3-3-3H7c-1.657 0-3 1.343-3 3v6z"/>
  <path d="M4 15c0 1.657 1.343 3 3 3h10c1.657 0 3-1.343 3-3V9c0-1.657-1.343-3-3-3H7c-1.657 0-3 1.343-3 3v6z"/>
  <path d="M4 15c0 1.657 1.343 3 3 3h10c1.657 0 3-1.343 3-3V9c0-1.657-1.343-3-3-3H7c-1.657 0-3 1.343-3 3v6z"/>
  <path d="M4 15c0 1.657 1.343 3 3 3h10c1.657 0 3-1.343 3-3V9c0-1.657-1.343-3-3-3H7c-1.657 0-3 1.343-3 3v6z"/>
  <path d="M4 15c0 1.657 1.343 3 3 3h10c1.657 0 3-1.343 3-3V9c0-1.657-1.343-3-3-3H7c-1.657 0-3 1.343-3 3v6z"/>
  <path d="M4 15c0 1.657 1.343 3 3 3h10c1.657 0 3-1.343 3-3V9c0-1.657-1.343-3-3-3H7c-1.657 0-3 1.343-3 3v6z"/>
  <path d="M4 15c0 1.657 1.343 3 3 3h10c1.657 0 3-1.343 3-3V9c0-1.657-1.343-3-3-3H7c-1.657 0-3 1.343-3 3v6z"/>
</svg>
